<svg width="570" height="254" viewBox="0 0 570 254" fill="none" xmlns="http://www.w3.org/2000/svg">
<g opacity="0.1">
<g clip-path="url(#clip0)">
<path d="M532.916 332.621C529.83 332.621 526.744 331.492 524.336 329.209L379.985 193.789C374.943 189.073 374.692 181.12 379.433 176.078C384.175 170.985 392.077 170.759 397.17 175.526L541.521 310.946C546.563 315.662 546.814 323.614 542.073 328.657C539.589 331.291 536.277 332.621 532.916 332.621Z" fill="white"/>
<path d="M51.066 332.632C47.7294 332.632 44.3928 331.303 41.9092 328.668C37.1678 323.626 37.4186 315.673 42.4611 310.957L186.862 175.537C191.93 170.821 199.882 171.021 204.599 176.089C209.34 181.132 209.089 189.084 204.047 193.8L59.6458 329.22C57.2374 331.503 54.1517 332.632 51.066 332.632Z" fill="white"/>
<path d="M618.282 458.534H-34.2823C-68.8523 458.534 -97 430.411 -97 395.816V-31.8434C-97 -66.4384 -68.8523 -94.561 -34.2823 -94.561H618.282C652.852 -94.561 681 -66.4384 681 -31.8434V395.816C681 430.411 652.852 458.534 618.282 458.534ZM-34.2823 -69.474C-55.0293 -69.474 -71.9129 -52.5904 -71.9129 -31.8434V395.816C-71.9129 416.563 -55.0293 433.446 -34.2823 433.446H618.282C639.029 433.446 655.913 416.563 655.913 395.816V-31.8434C655.913 -52.5904 639.029 -69.474 618.282 -69.474H-34.2823Z" fill="white"/>
<path d="M292.001 245.019C275.318 245.019 258.635 239.475 245.941 228.411L-76.1768 -52.5887C-81.3949 -57.1295 -81.9468 -65.057 -77.4061 -70.3002C-72.8151 -75.5183 -64.9127 -75.995 -59.6946 -71.5044L262.423 209.471C278.454 223.444 305.548 223.444 321.554 209.471L643.27 -71.0528C648.463 -75.5936 656.366 -75.0918 660.982 -69.8486C665.522 -64.6054 664.995 -56.703 659.777 -52.1372L338.061 228.386C325.342 239.475 308.684 245.019 292.001 245.019Z" fill="white"/>
</g>
</g>
<defs>
<clipPath id="clip0">
<rect x="-97" y="-207" width="778" height="778" fill="white"/>
</clipPath>
</defs>
</svg>
