<svg width="570" height="254" viewBox="0 0 570 254" fill="none" xmlns="http://www.w3.org/2000/svg">
<g opacity="0.1">
<path d="M305.754 70.4321C257.056 70.4321 217.418 110.07 217.418 158.768C217.418 207.466 257.056 247.104 305.754 247.104C354.452 247.104 394.09 207.466 394.09 158.768C394.09 110.07 354.452 70.4321 305.754 70.4321ZM305.754 221.865C270.962 221.865 242.657 193.56 242.657 158.768C242.657 123.976 270.962 95.6709 305.754 95.6709C340.546 95.6709 368.851 123.976 368.851 158.768C368.851 193.56 340.546 221.865 305.754 221.865Z" fill="white"/>
<path d="M474.639 -10.1169C428.932 -55.8243 368.157 -81 303.52 -81C238.871 -81 178.109 -55.8243 132.401 -10.1169C47.8134 74.4583 37.3015 233.589 109.636 330.001L303.52 610L497.114 330.392C569.739 233.589 559.227 74.4583 474.639 -10.1169ZM476.646 315.64L303.52 565.655L130.117 315.249C64.5089 227.771 73.9103 84.0616 150.258 7.72694C191.195 -33.2104 245.622 -55.7612 303.52 -55.7612C361.418 -55.7612 415.845 -33.2104 456.795 7.72694C533.143 84.0616 542.544 227.771 476.646 315.64Z" fill="white"/>
</g>
</svg>
